<svg xmlns="http://www.w3.org/2000/svg" width="1200" height="760" viewBox="0 0 1200 760" font-family="-apple-system,BlinkMacSystemFont,'Segoe UI','PingFang SC','Hiragino Sans GB','Microsoft YaHei',sans-serif">
  <defs>
    <linearGradient id="pagebg" x1="0" y1="0" x2="1" y2="1">
      <stop offset="0" stop-color="#dfe8e2"/><stop offset="1" stop-color="#cdd9d1"/>
    </linearGradient>
    <linearGradient id="sb" x1="0" y1="0" x2="0" y2="1">
      <stop offset="0" stop-color="#26362f"/><stop offset="1" stop-color="#1b2823"/>
    </linearGradient>
    <filter id="shadow" x="-20%" y="-20%" width="140%" height="140%">
      <feDropShadow dx="0" dy="10" stdDeviation="18" flood-color="#1f2f3a" flood-opacity="0.22"/>
    </filter>
    <clipPath id="win"><rect x="40" y="40" width="1120" height="680" rx="18"/></clipPath>
  </defs>
  <rect width="1200" height="760" fill="url(#pagebg)"/>
  <rect x="40" y="40" width="1120" height="680" rx="18" fill="#fff" filter="url(#shadow)"/>
  <g clip-path="url(#win)">
    <rect x="40" y="40" width="1120" height="52" fill="#f6f8f7"/>
    <circle cx="66" cy="66" r="6" fill="#e07b6a" opacity="1"/><circle cx="86" cy="66" r="6" fill="#e6c15a" opacity="1"/><circle cx="106" cy="66" r="6" fill="#7fc08a" opacity="1"/>
    <text x="600" y="71" font-size="13" fill="#8a9891" font-weight="400" text-anchor="middle" opacity="1">WellLog WMS · PDA 扫码拣货</text>
    <rect x="40" y="92" width="210" height="628" rx="0" fill="url(#sb)" stroke="none" stroke-width="1" opacity="1"/>
    <text x="66" y="118" font-size="15" fill="#ffffff" font-weight="700" text-anchor="start" opacity="1">WellLog WMS</text>
    <circle cx="72" cy="120" r="5" fill="#ffffff" opacity="0.35"/><text x="88" y="124" font-size="14" fill="#ffffff" font-weight="400" text-anchor="start" opacity="0.62">工作台</text><circle cx="72" cy="164" r="5" fill="#ffffff" opacity="0.35"/><text x="88" y="168" font-size="14" fill="#ffffff" font-weight="400" text-anchor="start" opacity="0.62">智能体工会</text><circle cx="72" cy="208" r="5" fill="#ffffff" opacity="0.35"/><text x="88" y="212" font-size="14" fill="#ffffff" font-weight="400" text-anchor="start" opacity="0.62">订单计划</text><circle cx="72" cy="252" r="5" fill="#ffffff" opacity="0.35"/><text x="88" y="256" font-size="14" fill="#ffffff" font-weight="400" text-anchor="start" opacity="0.62">出库协同</text><circle cx="72" cy="296" r="5" fill="#ffffff" opacity="0.35"/><text x="88" y="300" font-size="14" fill="#ffffff" font-weight="400" text-anchor="start" opacity="0.62">收货上架</text><rect x="52" y="322" width="186" height="36" rx="9" fill="#ffffff" stroke="none" stroke-width="1" opacity="0.1"/><rect x="52" y="326" width="3" height="28" rx="2" fill="#8fd0a8" stroke="none" stroke-width="1" opacity="1"/><circle cx="72" cy="340" r="5" fill="#8fd0a8" opacity="1"/><text x="88" y="344" font-size="14" fill="#ffffff" font-weight="600" text-anchor="start" opacity="1">拣货任务</text><circle cx="72" cy="384" r="5" fill="#ffffff" opacity="0.35"/><text x="88" y="388" font-size="14" fill="#ffffff" font-weight="400" text-anchor="start" opacity="0.62">库存控制</text><circle cx="72" cy="428" r="5" fill="#ffffff" opacity="0.35"/><text x="88" y="432" font-size="14" fill="#ffffff" font-weight="400" text-anchor="start" opacity="0.62">库存盘点</text><circle cx="72" cy="472" r="5" fill="#ffffff" opacity="0.35"/><text x="88" y="476" font-size="14" fill="#ffffff" font-weight="400" text-anchor="start" opacity="0.62">数据分析</text><circle cx="72" cy="516" r="5" fill="#ffffff" opacity="0.35"/><text x="88" y="520" font-size="14" fill="#ffffff" font-weight="400" text-anchor="start" opacity="0.62">系统管理</text>
    <text x="280" y="136" font-size="24" fill="#2c3b34" font-weight="700" text-anchor="start" opacity="1">PDA 扫码拣货</text><text x="280" y="162" font-size="13" fill="#8a9891" font-weight="400" text-anchor="start" opacity="1">库位 → 物料 → 批次三重校验，防错拣、防漏拣</text><rect x="400" y="186" width="300" height="470" rx="26" fill="#1f2f3a" stroke="none" stroke-width="1" opacity="1"/><rect x="410" y="196" width="280" height="450" rx="18" fill="#fff" stroke="none" stroke-width="1" opacity="1"/><text x="550" y="226" font-size="13" fill="#2c3b34" font-weight="700" text-anchor="middle" opacity="1">拣货任务 · SO-20260712-02</text><rect x="424" y="248" width="252" height="52" rx="10" fill="#f0f5f2" stroke="#e2e8e4" stroke-width="1" opacity="1"/><text x="550" y="280" font-size="13" fill="#587766" font-weight="600" text-anchor="middle" opacity="1">扫一扫 · 库位 / 物料条码</text><rect x="424" y="316" width="252" height="42" rx="8" fill="#f7faf8" stroke="#e2e8e4" stroke-width="1" opacity="1"/><text x="438" y="342" font-size="12" fill="#8a9891" font-weight="400" text-anchor="start" opacity="1">库位</text><text x="662" y="342" font-size="13" fill="#2c3b34" font-weight="600" text-anchor="end" opacity="1">A-01-03-02</text><rect x="424" y="368" width="252" height="42" rx="8" fill="#f7faf8" stroke="#e2e8e4" stroke-width="1" opacity="1"/><text x="438" y="394" font-size="12" fill="#8a9891" font-weight="400" text-anchor="start" opacity="1">物料</text><text x="662" y="394" font-size="13" fill="#2c3b34" font-weight="600" text-anchor="end" opacity="1">M-PCB-CONTROL</text><rect x="424" y="420" width="252" height="42" rx="8" fill="#f7faf8" stroke="#e2e8e4" stroke-width="1" opacity="1"/><text x="438" y="446" font-size="12" fill="#8a9891" font-weight="400" text-anchor="start" opacity="1">批次</text><text x="662" y="446" font-size="13" fill="#2c3b34" font-weight="600" text-anchor="end" opacity="1">LOT-2026-0612</text><rect x="424" y="472" width="252" height="42" rx="8" fill="#f7faf8" stroke="#e2e8e4" stroke-width="1" opacity="1"/><text x="438" y="498" font-size="12" fill="#8a9891" font-weight="400" text-anchor="start" opacity="1">数量</text><text x="662" y="498" font-size="13" fill="#2c3b34" font-weight="600" text-anchor="end" opacity="1">6 / 6</text><rect x="424" y="536" width="252" height="48" rx="10" fill="#587766" stroke="none" stroke-width="1" opacity="1"/><text x="550" y="567" font-size="15" fill="#fff" font-weight="700" text-anchor="middle" opacity="1">确认拣货</text><text x="550" y="614" font-size="11.5" fill="#2f9b5f" font-weight="400" text-anchor="middle" opacity="1">校验通过 · 已生成拣货流水</text><rect x="750" y="186" width="380" height="470" rx="12" fill="#fff" stroke="#e2e8e4" stroke-width="1" opacity="1"/><text x="774" y="218" font-size="15" fill="#2c3b34" font-weight="700" text-anchor="start" opacity="1">任务进度</text><rect x="774" y="238" width="332" height="12" rx="6" fill="#eef2ef" stroke="none" stroke-width="1" opacity="1"/><rect x="774" y="238" width="199.2" height="12" rx="6" fill="#2f9b5f" stroke="none" stroke-width="1" opacity="1"/><text x="774" y="276" font-size="12.5" fill="#8a9891" font-weight="400" text-anchor="start" opacity="1">4 / 7 行已拣</text><text x="774" y="316" font-size="12.5" fill="#2c3b34" font-weight="400" text-anchor="start" opacity="1">A-01-03-02  M-PCB-CONTROL  ✓</text><text x="774" y="354" font-size="12.5" fill="#2c3b34" font-weight="400" text-anchor="start" opacity="1">A-01-03-04  M-SEAL-RING  ✓</text><text x="774" y="392" font-size="12.5" fill="#8a9891" font-weight="400" text-anchor="start" opacity="1">A-02-01-01  M-HV-CONN  待拣</text><text x="774" y="430" font-size="12.5" fill="#8a9891" font-weight="400" text-anchor="start" opacity="1">A-02-01-05  M-CABLE-HV  待拣</text>
  </g>
</svg>