<svg xmlns="http://www.w3.org/2000/svg" width="1400" height="460"><rect width="100%" height="100%" fill="#F8FBFE"/><style>text{font-family:'Microsoft YaHei','Noto Sans CJK SC',Arial}.t{font-size:30px;font-weight:700;fill:#17365D}.h{font-size:21px;font-weight:700;fill:#fff}.n{font-size:18px;fill:#17365D}.s{font-size:15px;fill:#555}.a{stroke:#2F75B5;stroke-width:4;fill:none;marker-end:url(#m)}</style><defs><marker id="m" markerWidth="10" markerHeight="10" refX="8" refY="3" orient="auto"><path d="M0,0 L0,6 L9,3 z" fill="#2F75B5"/></marker></defs><text x="50" y="50" class="t">测井装备物料批次质量追溯链</text><rect x="50" y="80" rx="10" width="307" height="48" fill="#2F75B5"/><text x="203.5" y="112" text-anchor="middle" class="h">来源</text><rect x="375" y="80" rx="10" width="307" height="48" fill="#2F75B5"/><text x="528.5" y="112" text-anchor="middle" class="h">检验与库存</text><rect x="700" y="80" rx="10" width="307" height="48" fill="#2F75B5"/><text x="853.5" y="112" text-anchor="middle" class="h">生产领用</text><rect x="1025" y="80" rx="10" width="307" height="48" fill="#2F75B5"/><text x="1178.5" y="112" text-anchor="middle" class="h">追溯输出</text><rect x="55" y="150" rx="12" width="297" height="78" fill="#fff" stroke="#8EB6D8" stroke-width="2"/><text x="203.5" y="183" text-anchor="middle" class="n">供应商/采购</text><text x="203.5" y="209" text-anchor="middle" class="s">送货单与批次</text><rect x="380" y="150" rx="12" width="297" height="78" fill="#fff" stroke="#8EB6D8" stroke-width="2"/><text x="528.5" y="183" text-anchor="middle" class="n">收货检验</text><text x="528.5" y="209" text-anchor="middle" class="s">标准/实测/图片</text><rect x="705" y="150" rx="12" width="297" height="78" fill="#fff" stroke="#8EB6D8" stroke-width="2"/><text x="853.5" y="183" text-anchor="middle" class="n">领料与工单</text><text x="853.5" y="209" text-anchor="middle" class="s">批次到产品</text><rect x="1030" y="150" rx="12" width="297" height="78" fill="#fff" stroke="#8EB6D8" stroke-width="2"/><text x="1178.5" y="183" text-anchor="middle" class="n">正向追溯</text><text x="1178.5" y="209" text-anchor="middle" class="s">影响工单/去向</text><rect x="55" y="265" rx="12" width="297" height="78" fill="#fff" stroke="#8EB6D8" stroke-width="2"/><text x="203.5" y="298" text-anchor="middle" class="n">物料/BOM</text><text x="203.5" y="324" text-anchor="middle" class="s">关键件属性</text><rect x="380" y="265" rx="12" width="297" height="78" fill="#fff" stroke="#8EB6D8" stroke-width="2"/><text x="528.5" y="298" text-anchor="middle" class="n">冻结/移库/盘点</text><text x="528.5" y="324" text-anchor="middle" class="s">全过程流水</text><rect x="705" y="265" rx="12" width="297" height="78" fill="#fff" stroke="#8EB6D8" stroke-width="2"/><text x="853.5" y="298" text-anchor="middle" class="n">补料/退料</text><text x="853.5" y="324" text-anchor="middle" class="s">现场异常</text><rect x="1030" y="265" rx="12" width="297" height="78" fill="#fff" stroke="#8EB6D8" stroke-width="2"/><text x="1178.5" y="298" text-anchor="middle" class="n">反向追溯</text><text x="1178.5" y="324" text-anchor="middle" class="s">供应商/检验/责任</text><path d="M352 189 C366 189,366 189,380 189" class="a"/><path d="M677 189 C691 189,691 189,705 189" class="a"/><path d="M1002 189 C1016 189,1016 189,1030 189" class="a"/><path d="M352 304 C366 304,366 304,380 304" class="a"/><path d="M677 304 C691 304,691 304,705 304" class="a"/><path d="M1002 304 C1016 304,1016 304,1030 304" class="a"/></svg>